v 0.212132 -0.212132 -0.000000
v 0.249441 -0.166671 -0.000000
v 0.277164 -0.114805 -0.000000
v 0.294236 -0.058527 -0.000000
v 0.300000 0.000000 -0.000000
v 0.294236 0.058527 -0.000000
v 0.277164 0.114805 -0.000000
v 0.249441 0.166671 -0.000000
v 0.212132 0.212132 -0.000000
v 0.166671 0.249441 -0.000000
v 0.114805 0.277164 -0.000000
v 0.058527 0.294235 -0.000000
v 0.000000 0.300000 -0.000000
v -0.058527 0.294235 -0.000000
v -0.114805 0.277164 -0.000000
v -0.166671 0.249441 -0.000000
v -0.212132 0.212132 -0.000000
v -0.249441 0.166671 -0.000000
v -0.277164 0.114805 -0.000000
v -0.294235 0.058527 -0.000000
v -0.300000 -0.000001 -0.000000
v -0.294235 -0.058528 -0.000000
v -0.277164 -0.114806 -0.000000
v -0.249440 -0.166672 -0.000000
v -0.212132 -0.212133 -0.000000
v -0.166671 -0.249441 -0.000000
v -0.114804 -0.277164 -0.000000
v -0.058526 -0.294236 -0.000000
v 0.000001 -0.300000 -0.000000
v 0.058528 -0.294236 -0.000000
v 0.114806 -0.277164 -0.000000
v 0.166672 -0.249441 -0.000000
v 0.494975 -0.494973 -1.000000
v 0.582029 -0.388898 -1.000000
v 0.646716 -0.267877 -1.000000
v 0.686550 -0.136561 -1.000000
v 0.700000 0.000002 -1.000000
v 0.686549 0.136565 -1.000000
v 0.646715 0.267880 -1.000000
v 0.582028 0.388900 -1.000000
v 0.494974 0.494976 -1.000000
v 0.388899 0.582029 -1.000000
v 0.267878 0.646716 -1.000000
v 0.136563 0.686550 -1.000000
v 0.000000 0.700001 -1.000000
v -0.136563 0.686550 -1.000000
v -0.267878 0.646717 -1.000000
v -0.388898 0.582030 -1.000000
v -0.494974 0.494976 -1.000000
v -0.582028 0.388901 -1.000000
v -0.646715 0.267881 -1.000000
v -0.686550 0.136566 -1.000000
v -0.700000 0.000003 -1.000000
v -0.686551 -0.136560 -1.000000
v -0.646717 -0.267875 -1.000000
v -0.582031 -0.388896 -1.000000
v -0.494978 -0.494971 -1.000000
v -0.388903 -0.582026 -1.000000
v -0.267883 -0.646713 -1.000000
v -0.136568 -0.686548 -1.000000
v -0.000005 -0.700000 -1.000000
v 0.136558 -0.686550 -1.000000
v 0.267873 -0.646717 -1.000000
v 0.388894 -0.582032 -1.000000
v 0.000000 0.000000 -0.500000
v 0.400000 -0.600000 -0.000000
v 0.400000 -0.600000 2.000000
v -0.400000 -0.600000 2.000000
v -0.400000 -0.600000 -0.000000
v 0.400000 0.600000 0.000001
v 0.400000 0.600000 2.000000
v -0.400000 0.600000 2.000000
v -0.400000 0.600000 -0.000000
v 0.400000 -0.600000 1.000000
v 0.400000 0.600000 1.000001
v 0.400000 0.400000 0.200001
v 0.400000 -0.400000 0.200000
v 0.400000 -0.400000 1.800000
v 0.400000 0.400000 1.800001
v 0.600000 -0.400000 0.200000
v 0.600000 -0.400000 1.800000
v 0.600000 0.400000 0.200001
v 0.600000 0.400000 1.800001
v -0.400000 -0.600000 1.000000
v -0.400000 0.600000 1.000000
v -0.400000 -0.400000 1.800000
v -0.400000 0.400000 1.800000
v -0.400000 -0.400000 0.200000
v -0.400000 0.400000 0.200000
v -0.600000 -0.400000 1.800000
v -0.600000 -0.400000 0.200000
v -0.600000 0.400000 1.800000
v -0.600000 0.400000 0.200000
v 0.428979 -0.428977 -1.000000
v 0.280486 -0.280485 -0.500000
v 0.504425 -0.337045 -1.000000
v 0.329817 -0.220375 -0.500000
v 0.560487 -0.232160 -1.000000
v 0.366472 -0.151797 -0.500000
v 0.595010 -0.118353 -1.000000
v 0.389045 -0.077385 -0.500000
v 0.606666 0.000002 -1.000000
v 0.396666 0.000001 -0.500000
v 0.595009 0.118356 -1.000000
v 0.389044 0.077387 -0.500000
v 0.560486 0.232162 -1.000000
v 0.366472 0.151799 -0.500000
v 0.504424 0.337047 -1.000000
v 0.329816 0.220377 -0.500000
v 0.428978 0.428979 -1.000000
v 0.280485 0.280486 -0.500000
v 0.337046 0.504425 -1.000000
v 0.220376 0.329817 -0.500000
v 0.232161 0.560487 -1.000000
v 0.151798 0.366472 -0.500000
v 0.118355 0.595010 -1.000000
v 0.077386 0.389045 -0.500000
v 0.000000 0.606667 -1.000000
v 0.000000 0.396667 -0.500000
v -0.118354 0.595010 -1.000000
v -0.077386 0.389045 -0.500000
v -0.232161 0.560488 -1.000000
v -0.151797 0.366473 -0.500000
v -0.337045 0.504426 -1.000000
v -0.220376 0.329817 -0.500000
v -0.428977 0.428979 -1.000000
v -0.280485 0.280487 -0.500000
v -0.504424 0.337048 -1.000000
v -0.329816 0.220377 -0.500000
v -0.560486 0.232163 -1.000000
v -0.366472 0.151799 -0.500000
v -0.595010 0.118357 -1.000000
v -0.389045 0.077387 -0.500000
v -0.606667 0.000003 -1.000000
v -0.396667 0.000002 -0.500000
v -0.595010 -0.118352 -1.000000
v -0.389045 -0.077384 -0.500000
v -0.560488 -0.232158 -1.000000
v -0.366473 -0.151796 -0.500000
v -0.504427 -0.337043 -1.000000
v -0.329818 -0.220374 -0.500000
v -0.428981 -0.428975 -1.000000
v -0.280487 -0.280484 -0.500000
v -0.337049 -0.504423 -1.000000
v -0.220378 -0.329815 -0.500000
v -0.232165 -0.560485 -1.000000
v -0.151800 -0.366471 -0.500000
v -0.118359 -0.595009 -1.000000
v -0.077389 -0.389044 -0.500000
v -0.000005 -0.606666 -1.000000
v -0.000003 -0.396666 -0.500000
v 0.118350 -0.595010 -1.000000
v 0.077383 -0.389045 -0.500000
v 0.232157 -0.560489 -1.000000
v 0.151795 -0.366473 -0.500000
v 0.337041 -0.504427 -1.000000
v 0.220373 -0.329818 -0.500000
vn 0.577350 -0.577350 -0.577351
vn 0.707107 -0.707107 -0.000000
vn -0.577350 -0.577350 -0.577350
vn 0.577350 -0.577350 0.577350
vn -0.577350 -0.577350 0.577350
vn 0.577350 0.577350 0.577350
vn 0.707107 0.707107 -0.000000
vn -0.577350 0.577350 0.577350
vn 0.577351 0.577350 -0.577350
vn -0.577350 0.577350 -0.577351
vn 0.904534 0.301512 -0.301511
vn 0.904534 -0.301511 -0.301511
vn 0.904534 0.301511 0.301511
vn 0.904534 -0.301512 0.301511
vn -0.707107 -0.707107 -0.000000
vn -0.707107 0.707107 -0.000000
vn -0.904534 0.301511 0.301511
vn -0.904534 -0.301511 0.301511
vn -0.904534 0.301511 -0.301511
vn -0.904534 -0.301511 -0.301511
vn -0.577350 0.577350 -0.577350
vn 0.577350 0.577350 0.577351
vn 0.577350 -0.577351 0.577350
vn 0.577350 0.577351 -0.577350
vn 0.596119 -0.596118 -0.537853
vn 0.656536 -0.656529 0.371389
vn 0.468364 -0.700965 -0.537850
vn 0.515839 -0.771997 0.371389
vn 0.355315 -0.857800 0.371389
vn 0.322609 -0.778869 -0.537853
vn 0.181136 -0.910637 0.371390
vn 0.164465 -0.826841 -0.537853
vn 0.000000 -0.928477 0.371391
vn -0.000006 -0.843040 -0.537852
vn -0.181136 -0.910636 0.371391
vn -0.164477 -0.826838 -0.537853
vn -0.355311 -0.857801 0.371390
vn -0.322621 -0.778865 -0.537853
vn -0.515827 -0.772005 0.371391
vn -0.468371 -0.700959 -0.537852
vn -0.656532 -0.656532 0.371391
vn -0.596122 -0.596115 -0.537853
vn -0.771999 -0.515836 0.371390
vn -0.700964 -0.468364 -0.537852
vn -0.857800 -0.355313 0.371391
vn -0.778867 -0.322614 -0.537853
vn -0.910636 -0.181137 0.371391
vn -0.826842 -0.164465 -0.537851
vn -0.928476 -0.000001 0.371392
vn -0.843038 0.000003 -0.537853
vn -0.910636 0.181136 0.371391
vn -0.826841 0.164471 -0.537850
vn -0.857803 0.355307 0.371391
vn -0.778865 0.322621 -0.537852
vn -0.772000 0.515835 0.371391
vn -0.700960 0.468369 -0.537852
vn -0.656532 0.656532 0.371391
vn -0.596117 0.596120 -0.537852
vn -0.515835 0.771999 0.371391
vn -0.468368 0.700961 -0.537852
vn -0.355308 0.857802 0.371392
vn -0.322616 0.778868 -0.537851
vn -0.181136 0.910636 0.371391
vn -0.164468 0.826840 -0.537853
vn 0.000000 0.928476 0.371391
vn 0.000000 0.843040 -0.537851
vn 0.181136 0.910636 0.371391
vn 0.164471 0.826840 -0.537852
vn 0.355308 0.857802 0.371391
vn 0.322617 0.778866 -0.537853
vn 0.515835 0.772000 0.371391
vn 0.468366 0.700962 -0.537852
vn 0.656532 0.656532 0.371391
vn 0.596119 0.596119 -0.537851
vn 0.772000 0.515835 0.371391
vn 0.700961 0.468368 -0.537853
vn 0.857800 0.355315 0.371390
vn 0.778866 0.322619 -0.537852
vn 0.910637 0.181135 0.371390
vn 0.826840 0.164471 -0.537852
vn 0.928477 0.000000 0.371390
vn 0.843039 0.000003 -0.537852
vn 0.910637 -0.181135 0.371391
vn 0.826841 -0.164467 -0.537852
vn 0.857800 -0.355315 0.371391
vn 0.778867 -0.322616 -0.537852
vn 0.772000 -0.515835 0.371390
vn 0.700961 -0.468368 -0.537852
vn -0.407727 0.407729 -0.817016
vn 0.000000 0.000000 -1.000000
vn -0.479439 0.320348 -0.817016
vn -0.532721 0.220660 -0.817017
vn -0.565537 0.112490 -0.817015
vn -0.576613 -0.000004 -0.817017
vn -0.565534 -0.112490 -0.817017
vn -0.532724 -0.220660 -0.817015
vn -0.479436 -0.320352 -0.817016
vn -0.407726 -0.407727 -0.817018
vn -0.320351 -0.479439 -0.817015
vn -0.220659 -0.532721 -0.817017
vn -0.112494 -0.565535 -0.817016
vn 0.000000 -0.576615 -0.817016
vn 0.112491 -0.565534 -0.817017
vn 0.220659 -0.532723 -0.817017
vn 0.320349 -0.479438 -0.817016
vn 0.407728 -0.407728 -0.817016
vn 0.479436 -0.320351 -0.817017
vn 0.532721 -0.220663 -0.817016
vn 0.565535 -0.112494 -0.817016
vn 0.576615 -0.000000 -0.817016
vn 0.565534 0.112490 -0.817017
vn 0.532724 0.220657 -0.817016
vn 0.479439 0.320348 -0.817016
vn 0.407729 0.407726 -0.817017
vn 0.320353 0.479436 -0.817016
vn 0.220664 0.532720 -0.817017
vn 0.112495 0.565535 -0.817016
vn 0.000004 0.576613 -0.817017
vn -0.112487 0.565536 -0.817016
vn -0.220656 0.532724 -0.817017
vn -0.320347 0.479439 -0.817016
vn -0.293684 0.439532 -0.848859
vn -0.373787 0.373789 -0.848861
vn -0.202289 0.488378 -0.848862
vn -0.103123 0.518463 -0.848859
vn 0.000002 0.528619 -0.848859
vn 0.103131 0.518459 -0.848861
vn 0.202297 0.488379 -0.848859
vn 0.293686 0.439527 -0.848861
vn 0.373792 0.373787 -0.848859
vn 0.439531 0.293681 -0.848860
vn 0.488381 0.202290 -0.848859
vn 0.518462 0.103127 -0.848859
vn 0.528618 -0.000000 -0.848860
vn 0.518459 -0.103131 -0.848861
vn 0.488380 -0.202296 -0.848859
vn 0.439528 -0.293685 -0.848861
vn 0.373790 -0.373791 -0.848859
vn 0.293685 -0.439529 -0.848860
vn 0.202291 -0.488378 -0.848861
vn 0.103127 -0.518462 -0.848859
vn 0.000000 -0.528618 -0.848860
vn -0.103129 -0.518460 -0.848860
vn -0.202294 -0.488380 -0.848859
vn -0.293684 -0.439531 -0.848860
vn -0.373788 -0.373789 -0.848861
vn -0.439531 -0.293684 -0.848859
vn -0.488380 -0.202294 -0.848859
vn -0.518460 -0.103129 -0.848860
vn -0.528619 -0.000002 -0.848859
vn -0.518460 0.103126 -0.848861
vn -0.488380 0.202293 -0.848860
vn -0.439531 0.293683 -0.848860
f 66//1 74//2 69//3 
f 74//2 67//4 68//5 
f 71//6 75//7 72//8 
f 75//7 70//9 73//10 
f 75//7 76//11 70//9 
f 77//12 74//2 66//1 
f 75//7 79//13 76//11 
f 78//14 74//2 77//12 
f 74//2 78//14 67//4 
f 79//13 75//7 71//6 
f 68//5 84//15 74//2 
f 84//15 69//3 74//2 
f 73//10 85//16 75//7 
f 85//16 72//8 75//7 
f 85//16 87//17 72//8 
f 86//18 84//15 68//5 
f 85//16 89//19 87//17 
f 88//20 84//15 86//18 
f 84//15 88//20 69//3 
f 89//19 85//16 73//10 
f 93//21 91//3 90//5 
f 93//21 90//5 92//8 
f 86//18 87//17 90//5 
f 87//17 92//8 90//5 
f 89//19 88//20 91//3 
f 89//19 91//3 93//21 
f 87//17 89//19 93//21 
f 87//17 93//21 92//8 
f 88//20 86//18 90//5 
f 88//20 90//5 91//3 
f 88//20 89//19 73//10 
f 88//20 73//10 69//3 
f 87//17 86//18 72//8 
f 86//18 68//5 72//8 
f 83//22 81//23 82//24 
f 81//23 80//1 82//24 
f 77//12 76//11 82//24 
f 77//12 82//24 80//1 
f 79//13 78//14 81//23 
f 79//13 81//23 83//22 
f 76//11 79//13 83//22 
f 76//11 83//22 82//24 
f 78//14 77//12 81//23 
f 77//12 80//1 81//23 
f 78//14 79//13 71//6 
f 78//14 71//6 67//4 
f 76//11 77//12 66//1 
f 76//11 66//1 70//9 
f 70//9 66//1 69//3 
f 70//9 69//3 73//10 
f 67//4 71//6 68//5 
f 71//6 72//8 68//5 
f 33//25 1//26 64//27 
f 1//26 32//28 64//27 
f 31//29 63//30 32//28 
f 63//30 64//27 32//28 
f 30//31 62//32 31//29 
f 62//32 63//30 31//29 
f 29//33 61//34 30//31 
f 61//34 62//32 30//31 
f 28//35 60//36 61//34 
f 28//35 61//34 29//33 
f 27//37 59//38 60//36 
f 27//37 60//36 28//35 
f 26//39 58//40 59//38 
f 26//39 59//38 27//37 
f 25//41 57//42 58//40 
f 25//41 58//40 26//39 
f 24//43 56//44 57//42 
f 24//43 57//42 25//41 
f 23//45 55//46 56//44 
f 23//45 56//44 24//43 
f 22//47 54//48 55//46 
f 22//47 55//46 23//45 
f 21//49 53//50 54//48 
f 21//49 54//48 22//47 
f 20//51 52//52 21//49 
f 52//52 53//50 21//49 
f 19//53 51//54 20//51 
f 51//54 52//52 20//51 
f 18//55 50//56 19//53 
f 50//56 51//54 19//53 
f 17//57 49//58 18//55 
f 49//58 50//56 18//55 
f 16//59 48//60 17//57 
f 48//60 49//58 17//57 
f 15//61 47//62 16//59 
f 47//62 48//60 16//59 
f 14//63 46//64 15//61 
f 46//64 47//62 15//61 
f 13//65 45//66 14//63 
f 45//66 46//64 14//63 
f 12//67 44//68 45//66 
f 12//67 45//66 13//65 
f 11//69 43//70 44//68 
f 11//69 44//68 12//67 
f 10//71 42//72 43//70 
f 10//71 43//70 11//69 
f 9//73 41//74 42//72 
f 9//73 42//72 10//71 
f 8//75 40//76 41//74 
f 8//75 41//74 9//73 
f 7//77 39//78 40//76 
f 7//77 40//76 8//75 
f 6//79 38//80 39//78 
f 6//79 39//78 7//77 
f 5//81 37//82 38//80 
f 5//81 38//80 6//79 
f 4//83 36//84 5//81 
f 36//84 37//82 5//81 
f 3//85 35//86 4//83 
f 35//86 36//84 4//83 
f 2//87 34//88 3//85 
f 34//88 35//86 3//85 
f 1//26 33//25 2//87 
f 33//25 34//88 2//87 
f 95//89 65//90 97//91 
f 97//91 65//90 99//92 
f 99//92 65//90 101//93 
f 101//93 65//90 103//94 
f 103//94 65//90 105//95 
f 105//95 65//90 107//96 
f 107//96 65//90 109//97 
f 109//97 65//90 111//98 
f 111//98 65//90 113//99 
f 113//99 65//90 115//100 
f 115//100 65//90 117//101 
f 117//101 65//90 119//102 
f 119//102 65//90 121//103 
f 121//103 65//90 123//104 
f 123//104 65//90 125//105 
f 125//105 65//90 127//106 
f 127//106 65//90 129//107 
f 129//107 65//90 131//108 
f 131//108 65//90 133//109 
f 133//109 65//90 135//110 
f 135//110 65//90 137//111 
f 137//111 65//90 139//112 
f 139//112 65//90 141//113 
f 141//113 65//90 143//114 
f 143//114 65//90 145//115 
f 145//115 65//90 147//116 
f 147//116 65//90 149//117 
f 149//117 65//90 151//118 
f 151//118 65//90 153//119 
f 153//119 65//90 155//120 
f 155//120 65//90 157//121 
f 157//121 65//90 95//89 
f 156//122 157//121 95//89 
f 156//122 95//89 94//123 
f 64//27 156//122 94//123 
f 64//27 94//123 33//25 
f 154//124 155//120 157//121 
f 154//124 157//121 156//122 
f 63//30 154//124 156//122 
f 63//30 156//122 64//27 
f 152//125 153//119 155//120 
f 152//125 155//120 154//124 
f 62//32 152//125 154//124 
f 62//32 154//124 63//30 
f 150//126 151//118 153//119 
f 150//126 153//119 152//125 
f 61//34 150//126 152//125 
f 61//34 152//125 62//32 
f 148//127 149//117 150//126 
f 149//117 151//118 150//126 
f 60//36 148//127 61//34 
f 148//127 150//126 61//34 
f 146//128 147//116 148//127 
f 147//116 149//117 148//127 
f 59//38 146//128 60//36 
f 146//128 148//127 60//36 
f 144//129 145//115 146//128 
f 145//115 147//116 146//128 
f 58//40 144//129 59//38 
f 144//129 146//128 59//38 
f 142//130 143//114 144//129 
f 143//114 145//115 144//129 
f 57//42 142//130 58//40 
f 142//130 144//129 58//40 
f 140//131 141//113 142//130 
f 141//113 143//114 142//130 
f 56//44 140//131 57//42 
f 140//131 142//130 57//42 
f 138//132 139//112 140//131 
f 139//112 141//113 140//131 
f 55//46 138//132 56//44 
f 138//132 140//131 56//44 
f 136//133 137//111 138//132 
f 137//111 139//112 138//132 
f 54//48 136//133 55//46 
f 136//133 138//132 55//46 
f 134//134 135//110 136//133 
f 135//110 137//111 136//133 
f 53//50 134//134 54//48 
f 134//134 136//133 54//48 
f 132//135 133//109 135//110 
f 132//135 135//110 134//134 
f 52//52 132//135 134//134 
f 52//52 134//134 53//50 
f 130//136 131//108 133//109 
f 130//136 133//109 132//135 
f 51//54 130//136 132//135 
f 51//54 132//135 52//52 
f 128//137 129//107 131//108 
f 128//137 131//108 130//136 
f 50//56 128//137 130//136 
f 50//56 130//136 51//54 
f 126//138 127//106 129//107 
f 126//138 129//107 128//137 
f 49//58 126//138 128//137 
f 49//58 128//137 50//56 
f 124//139 125//105 127//106 
f 124//139 127//106 126//138 
f 48//60 124//139 126//138 
f 48//60 126//138 49//58 
f 122//140 123//104 125//105 
f 122//140 125//105 124//139 
f 47//62 122//140 124//139 
f 47//62 124//139 48//60 
f 120//141 121//103 123//104 
f 120//141 123//104 122//140 
f 46//64 120//141 122//140 
f 46//64 122//140 47//62 
f 118//142 119//102 121//103 
f 118//142 121//103 120//141 
f 45//66 118//142 120//141 
f 45//66 120//141 46//64 
f 116//143 117//101 118//142 
f 117//101 119//102 118//142 
f 44//68 116//143 45//66 
f 116//143 118//142 45//66 
f 114//144 115//100 116//143 
f 115//100 117//101 116//143 
f 43//70 114//144 44//68 
f 114//144 116//143 44//68 
f 112//145 113//99 114//144 
f 113//99 115//100 114//144 
f 42//72 112//145 43//70 
f 112//145 114//144 43//70 
f 110//146 111//98 112//145 
f 111//98 113//99 112//145 
f 41//74 110//146 42//72 
f 110//146 112//145 42//72 
f 108//147 109//97 110//146 
f 109//97 111//98 110//146 
f 40//76 108//147 41//74 
f 108//147 110//146 41//74 
f 106//148 107//96 108//147 
f 107//96 109//97 108//147 
f 39//78 106//148 40//76 
f 106//148 108//147 40//76 
f 104//149 105//95 106//148 
f 105//95 107//96 106//148 
f 38//80 104//149 39//78 
f 104//149 106//148 39//78 
f 102//150 103//94 104//149 
f 103//94 105//95 104//149 
f 37//82 102//150 38//80 
f 102//150 104//149 38//80 
f 100//151 101//93 103//94 
f 100//151 103//94 102//150 
f 36//84 100//151 102//150 
f 36//84 102//150 37//82 
f 98//152 99//92 101//93 
f 98//152 101//93 100//151 
f 35//86 98//152 100//151 
f 35//86 100//151 36//84 
f 96//153 97//91 99//92 
f 96//153 99//92 98//152 
f 34//88 96//153 98//152 
f 34//88 98//152 35//86
f 94//123 95//89 97//91
f 94//123 97//91 96//153
f 33//25 94//123 96//153
f 33//25 96//153 34//88